<svg width="23" height="21" viewBox="0 0 23 21" fill="none" xmlns="http://www.w3.org/2000/svg">
<path fill-rule="evenodd" clip-rule="evenodd" d="M15.7403 0.804261C14.2926 0.804245 13.3594 0.975628 12.2897 1.49596C11.8936 1.6886 11.5221 1.9206 11.177 2.19126C10.8452 1.93577 10.4885 1.71442 10.1089 1.52782C9.01836 0.991837 8.03732 0.804245 6.64159 0.804245C2.90348 0.804245 0.187042 3.8821 0.187042 7.8795C0.187042 10.8983 1.88087 13.8145 5.03588 16.6343C6.69194 18.1144 8.80636 19.5792 10.3206 20.3584L11.187 20.8042L12.0534 20.3584C13.5677 19.5792 15.6821 18.1144 17.3382 16.6343C20.4932 13.8145 22.187 10.8983 22.187 7.8795C22.187 3.92441 19.445 0.819507 15.7403 0.804261ZM20.187 7.8795C20.187 10.2446 18.7732 12.6787 16.0008 15.1566C14.4892 16.5076 12.546 17.8576 11.187 18.5659C9.82808 17.8576 7.88486 16.5076 6.37332 15.1566C3.60086 12.6787 2.18704 10.2446 2.18704 7.8795C2.18704 4.92597 4.07068 2.79171 6.64159 2.79171C7.75132 2.79171 8.43517 2.92248 9.22218 3.30929C9.68705 3.53778 10.0979 3.83948 10.4536 4.2165L11.1894 4.99651L11.9185 4.21032C12.2821 3.81819 12.6991 3.50962 13.169 3.28105C13.9329 2.90946 14.574 2.79171 15.7361 2.79172C18.2752 2.80218 20.187 4.96696 20.187 7.8795Z" fill="#9564AA"/>
</svg>
