<svg width="23" height="17" viewBox="0 0 23 17" fill="none" xmlns="http://www.w3.org/2000/svg">
<path fill-rule="evenodd" clip-rule="evenodd" d="M7.18703 8.80424C7.18703 11.0134 8.9779 12.8042 11.187 12.8042C13.3962 12.8042 15.187 11.0134 15.187 8.80424C15.187 6.59511 13.3962 4.80424 11.187 4.80424C8.9779 4.80424 7.18703 6.59511 7.18703 8.80424ZM13.187 8.80424C13.187 9.90881 12.2916 10.8042 11.187 10.8042C10.0825 10.8042 9.18703 9.90881 9.18703 8.80424C9.18703 7.69968 10.0825 6.80424 11.187 6.80424C12.2916 6.80424 13.187 7.69968 13.187 8.80424Z" fill="#9564AA"/>
<path fill-rule="evenodd" clip-rule="evenodd" d="M11.187 0.804245C13.9146 0.804245 16.5227 2.23487 18.9533 4.58539C19.7825 5.38729 20.5327 6.2434 21.1931 7.09987C21.5916 7.61669 21.8746 8.02324 22.0295 8.26545L22.3741 8.80424L22.0295 9.34304C21.8746 9.58525 21.5916 9.9918 21.1931 10.5086C20.5327 11.3651 19.7825 12.2212 18.9533 13.0231C16.5227 15.3736 13.9146 16.8042 11.187 16.8042C8.45949 16.8042 5.85136 15.3736 3.42074 13.0231C2.59153 12.2212 1.84134 11.3651 1.18094 10.5086C0.782441 9.9918 0.499509 9.58525 0.3446 9.34304L0 8.80424L0.3446 8.26545C0.499509 8.02324 0.782441 7.61669 1.18094 7.09987C1.84134 6.2434 2.59153 5.38729 3.42074 4.58539C5.85136 2.23487 8.45949 0.804245 11.187 0.804245ZM19.6093 8.32112C19.0046 7.53696 18.3172 6.75245 17.563 6.0231C15.4695 3.99862 13.2921 2.80424 11.187 2.80424C9.08196 2.80424 6.90453 3.99862 4.81108 6.0231C4.05687 6.75245 3.36942 7.53696 2.76478 8.32112C2.63419 8.49048 2.51352 8.65207 2.4032 8.80424C2.51352 8.95642 2.63419 9.11801 2.76478 9.28737C3.36942 10.0715 4.05687 10.856 4.81108 11.5854C6.90453 13.6099 9.08196 14.8042 11.187 14.8042C13.2921 14.8042 15.4695 13.6099 17.563 11.5854C18.3172 10.856 19.0046 10.0715 19.6093 9.28737C19.7399 9.11801 19.8605 8.95642 19.9709 8.80424C19.8605 8.65207 19.7399 8.49048 19.6093 8.32112Z" fill="#9564AA"/>
</svg>
