<svg width="23" height="18" viewBox="0 0 23 18" fill="none" xmlns="http://www.w3.org/2000/svg">
<path d="M19.187 7C19.187 7.55228 18.7393 8 18.187 8C17.6348 8 17.187 7.55228 17.187 7C17.187 6.44772 17.6348 6 18.187 6C18.7393 6 19.187 6.44772 19.187 7Z" fill="#9564AA"/>
<path fill-rule="evenodd" clip-rule="evenodd" d="M6.18704 10C6.18704 12.7614 8.42562 15 11.187 15C13.9485 15 16.187 12.7614 16.187 10C16.187 7.23858 13.9485 5 11.187 5C8.42562 5 6.18704 7.23858 6.18704 10ZM14.187 10C14.187 11.6569 12.8439 13 11.187 13C9.53019 13 8.18704 11.6569 8.18704 10C8.18704 8.34315 9.53019 7 11.187 7C12.8439 7 14.187 8.34315 14.187 10Z" fill="#9564AA"/>
<path fill-rule="evenodd" clip-rule="evenodd" d="M6.12406 2.84538C6.19491 2.74688 6.2736 2.62631 6.37394 2.46372C6.41059 2.40433 6.51053 2.23944 6.58496 2.11665L6.66884 1.97841C7.49783 0.622387 8.10044 0 9.18704 0H13.187C14.2736 0 14.8763 0.622387 15.7052 1.97841L15.7891 2.11664C15.8635 2.23943 15.9635 2.40433 16.0001 2.46372C16.1005 2.62631 16.1792 2.74688 16.25 2.84538C16.2967 2.91033 16.3376 2.96194 16.3708 3H19.187C20.8439 3 22.187 4.34315 22.187 6V15C22.187 16.6569 20.8439 18 19.187 18H3.18704C1.53019 18 0.187042 16.6569 0.187042 15V6C0.187042 4.34315 1.53019 3 3.18704 3H6.00324C6.03653 2.96194 6.07734 2.91033 6.12406 2.84538ZM3.18704 5C2.63476 5 2.18704 5.44772 2.18704 6V15C2.18704 15.5523 2.63476 16 3.18704 16H19.187C19.7393 16 20.187 15.5523 20.187 15V6C20.187 5.44772 19.7393 5 19.187 5H16.187C15.5227 5 15.0747 4.63641 14.6264 4.01326C14.5233 3.86988 14.4211 3.71332 14.2982 3.51409C14.256 3.44583 14.1467 3.26536 14.0716 3.14152L13.9988 3.02159C13.5465 2.28172 13.2738 2 13.187 2H9.18704C9.10031 2 8.82754 2.28172 8.37524 3.02159L8.30247 3.14152C8.22743 3.26534 8.11796 3.44596 8.07591 3.51409C7.95296 3.71332 7.85079 3.86988 7.74766 4.01326C7.29941 4.63641 6.85138 5 6.18704 5H3.18704Z" fill="#9564AA"/>
</svg>
