<svg width="23" height="22" viewBox="0 0 23 22" fill="none" xmlns="http://www.w3.org/2000/svg">
<path fill-rule="evenodd" clip-rule="evenodd" d="M11.187 14C8.94791 14 7.18704 12.4274 7.18704 9C7.18704 6.75576 8.76614 5 11.187 5C13.6012 5 15.187 6.92158 15.187 9.2C15.187 12.4796 13.4051 14 11.187 14ZM9.18704 9C9.18704 11.2693 10.0053 12 11.187 12C12.3647 12 13.187 11.2984 13.187 9.2C13.187 7.95042 12.4027 7 11.187 7C9.92078 7 9.18704 7.81582 9.18704 9Z" fill="#9564AA"/>
<path fill-rule="evenodd" clip-rule="evenodd" d="M11.187 22C5.11191 22 0.187042 17.0751 0.187042 11C0.187042 4.92487 5.11191 0 11.187 0C17.2622 0 22.187 4.92487 22.187 11C22.187 17.0751 17.2622 22 11.187 22ZM18.5865 16.1246C19.5957 14.6703 20.187 12.9042 20.187 11C20.187 6.02944 16.1576 2 11.187 2C6.21648 2 2.18704 6.02944 2.18704 11C2.18704 12.9042 2.77842 14.6703 3.78755 16.1246C4.91299 14.6381 7.55765 14 11.187 14C14.8164 14 17.4611 14.6381 18.5865 16.1246ZM17.1517 17.7398C16.859 16.6874 14.7564 16 11.187 16C7.61766 16 5.51505 16.6874 5.22236 17.7398C6.81034 19.1462 8.89898 20 11.187 20C13.4751 20 15.5637 19.1462 17.1517 17.7398Z" fill="#9564AA"/>
</svg>
