<svg width="23" height="23" viewBox="0 0 23 23" fill="none" xmlns="http://www.w3.org/2000/svg">
<path fill-rule="evenodd" clip-rule="evenodd" d="M11.187 15.8042C8.9779 15.8042 7.18704 14.0134 7.18704 11.8042C7.18704 9.59511 8.9779 7.80424 11.187 7.80424C13.3962 7.80424 15.187 9.59511 15.187 11.8042C15.187 14.0134 13.3962 15.8042 11.187 15.8042ZM13.187 11.8042C13.187 12.9088 12.2916 13.8042 11.187 13.8042C10.0825 13.8042 9.18704 12.9088 9.18704 11.8042C9.18704 10.6997 10.0825 9.80424 11.187 9.80424C12.2916 9.80424 13.187 10.6997 13.187 11.8042Z" fill="#9564AA"/>
<path fill-rule="evenodd" clip-rule="evenodd" d="M17.8432 20.7013L20.0604 18.4841L19.2795 15.6472L19.6197 14.8347L22.187 13.3861V10.2507L19.627 8.79597L19.2925 7.98492L20.0832 5.1466L17.8644 2.93108L15.0273 3.71172L14.2167 3.37182L12.7679 0.804245H9.63248L8.17776 3.36429L7.36689 3.69871L4.52902 2.90705L2.31375 5.12233L3.09452 7.95992L2.75462 8.77059L0.187042 10.2194V13.3539L2.74478 14.8118L3.07956 15.6236L2.28901 18.4614L4.50513 20.6775L7.34272 19.8968L8.15348 20.2367L9.60231 22.8032H12.7369L14.1938 20.2454L15.0054 19.9107L17.8432 20.7013ZM18.0397 13.4299L17.1679 15.512L17.8232 17.8928L17.2548 18.4612L14.8791 17.7994L12.796 18.6585L11.5744 20.8032H10.77L9.55845 18.6571L7.47859 17.785L5.09651 18.4405L4.52907 17.8731L5.1909 15.4973L4.33186 13.4144L2.18704 12.1918V11.3873L4.33414 10.1757L5.20624 8.0958L4.55079 5.71371L5.11705 5.14745L7.4928 5.81019L9.57659 4.9508L10.7963 2.80424H11.6L12.8115 4.95134L14.8914 5.82344L17.274 5.16787L17.8429 5.7359L17.1812 8.1112L18.0405 10.1948L20.187 11.4146V12.2182L18.0397 13.4299Z" fill="#9564AA"/>
</svg>
